<svg width="21" height="15" viewBox="0 0 21 15" fill="none" xmlns="http://www.w3.org/2000/svg">
<path d="M2 0H19C19.5304 0 20.0391 0.210712 20.4142 0.585785C20.7893 0.960858 21 1.46957 21 2V13C21 13.5304 20.7893 14.0391 20.4142 14.4142C20.0391 14.7893 19.5304 15 19 15H2C1.46957 15 0.960858 14.7893 0.585785 14.4142C0.210712 14.0391 0 13.5304 0 13V2C0 1.46957 0.210712 0.960858 0.585785 0.585785C0.960858 0.210712 1.46957 0 2 0Z" fill="#F6F9FC"/>
<path opacity="0.2" d="M19 15H2C1.46957 15 0.960858 14.7893 0.585785 14.4142C0.210712 14.0391 0 13.5304 0 13V2C0 1.46957 0.210712 0.960858 0.585785 0.585785C0.960858 0.210712 1.46957 0 2 0H19C19.5304 0 20.0391 0.210712 20.4142 0.585785C20.7893 0.960858 21 1.46957 21 2V13C21 13.5304 20.7893 14.0391 20.4142 14.4142C20.0391 14.7893 19.5304 15 19 15ZM20 2C20 1.73478 19.8946 1.48043 19.7071 1.29289C19.5196 1.10536 19.2652 1 19 1H2C1.73478 1 1.48044 1.10536 1.29291 1.29289C1.10537 1.48043 1 1.73478 1 2V13C1 13.2652 1.10537 13.5196 1.29291 13.7071C1.48044 13.8946 1.73478 14 2 14H19C19.2652 14 19.5196 13.8946 19.7071 13.7071C19.8946 13.5196 20 13.2652 20 13V2Z" fill="#8898AA"/>
<path d="M10.5 4C11.1922 4 11.8689 4.20527 12.4445 4.58986C13.0201 4.97444 13.4687 5.52106 13.7336 6.16061C13.9985 6.80015 14.0678 7.50388 13.9327 8.18282C13.7977 8.86175 13.4644 9.48539 12.9749 9.97488C12.4854 10.4644 11.8618 10.7977 11.1828 10.9327C10.5039 11.0678 9.80016 10.9985 9.16061 10.7336C8.52107 10.4687 7.97443 10.0201 7.58984 9.4445C7.20526 8.86892 7 8.19223 7 7.5C7 6.57174 7.36874 5.6815 8.02512 5.02512C8.68149 4.36875 9.57174 4 10.5 4Z" fill="#E25950"/>
</svg>
