<svg width="21" height="15" viewBox="0 0 21 15" fill="none" xmlns="http://www.w3.org/2000/svg">
<g clip-path="url(#clip0_22_12599)">
<path d="M-0.75 -0.0866699H21.75V14.9133H-0.75V-0.0866699Z" fill="white"/>
<path d="M2.69971 4.46655L4.77983 1.34636L5.29986 1.69305L3.21974 4.81324L2.69971 4.46655ZM3.47975 4.98658L5.55988 1.8664L6.07991 2.21308L3.99979 5.33327L3.47975 4.98658ZM4.2598 5.50662L6.33993 2.38643L6.85996 2.73311L4.77983 5.8533L4.2598 5.50662Z" fill="black"/>
<path d="M14.1406 12.0938L16.2208 8.97356L16.7408 9.32025L14.6607 12.4404L14.1406 12.0938ZM14.9207 12.6138L17.0008 9.49359L17.5208 9.84028L15.4407 12.9605L14.9207 12.6138ZM15.7007 13.1338L17.7808 10.0136L18.3009 10.3603L16.2208 13.4805L15.7007 13.1338Z" fill="black"/>
<path d="M14.9204 10.3601L17.5206 12.0935L14.9204 10.3601Z" fill="black"/>
<path d="M14.9204 10.3601L17.5206 12.0935" stroke="white" stroke-width="0.3125"/>
<path d="M7.37988 5.33325C7.93157 4.50573 8.78939 3.93125 9.76464 3.7362C10.7399 3.54115 11.7527 3.74151 12.5802 4.29319C13.4077 4.84487 13.9822 5.70269 14.1772 6.67794C14.3723 7.65319 14.1719 8.66598 13.6203 9.4935L7.37988 5.33325Z" fill="#CD2E3A"/>
<path d="M7.37993 5.33318C6.82825 6.16071 6.62789 7.17349 6.82294 8.14874C7.01799 9.12399 7.59247 9.98181 8.41999 10.5335C9.24752 11.0852 10.2603 11.2855 11.2356 11.0905C12.2108 10.8954 13.0686 10.321 13.6203 9.49343C13.8961 9.07967 13.9963 8.57328 13.8988 8.08565C13.8013 7.59803 13.514 7.16912 13.1003 6.89327C12.6865 6.61743 12.1801 6.51726 11.6925 6.61478C11.2049 6.71231 10.776 6.99954 10.5001 7.41331L7.37993 5.33318Z" fill="#0047A0"/>
<path d="M10.5001 7.41334C11.0745 6.55173 10.8417 5.3876 9.98006 4.81318C9.11845 4.23877 7.95432 4.4716 7.37991 5.33322C6.8055 6.19483 7.03832 7.35896 7.89994 7.93337C8.76155 8.50778 9.92568 8.27496 10.5001 7.41334Z" fill="#CD2E3A"/>
<path d="M4.77979 13.4805L2.69966 10.3603L3.21969 10.0136L5.29982 13.1338L4.77979 13.4805ZM5.55983 12.9604L3.47971 9.84025L3.99974 9.49356L6.07986 12.6137L5.55983 12.9604ZM6.33988 12.4404L4.25975 9.32022L4.77979 8.97353L6.85991 12.0937L6.33988 12.4404Z" fill="black"/>
<path d="M16.2207 5.85327L14.1406 2.73308L14.6606 2.3864L16.7407 5.50658L16.2207 5.85327ZM17.0008 5.33324L14.9206 2.21305L15.4407 1.86636L17.5208 4.98655L17.0008 5.33324ZM17.7808 4.81321L15.7007 1.69302L16.2207 1.34633L18.3008 4.46652L17.7808 4.81321Z" fill="black"/>
<path d="M4.38965 11.4868L5.1697 10.9668L4.38965 11.4868ZM14.9203 4.46639L15.8303 3.85969L14.9203 4.46639ZM16.6104 3.33966L17.3904 2.81963L16.6104 3.33966Z" fill="black"/>
<path d="M4.38965 11.4868L5.1697 10.9668M14.9203 4.46639L15.8303 3.85969M16.6104 3.33966L17.3904 2.81963" stroke="white" stroke-width="0.3125"/>
<path opacity="0.2" d="M19 15H2C1.46957 15 0.960858 14.7893 0.585785 14.4142C0.210712 14.0391 0 13.5304 0 13V2C0 1.46957 0.210712 0.960858 0.585785 0.585785C0.960858 0.210712 1.46957 0 2 0H19C19.5304 0 20.0391 0.210712 20.4142 0.585785C20.7893 0.960858 21 1.46957 21 2V13C21 13.5304 20.7893 14.0391 20.4142 14.4142C20.0391 14.7893 19.5304 15 19 15ZM20 2C20 1.73478 19.8946 1.48043 19.7071 1.29289C19.5196 1.10536 19.2652 1 19 1H2C1.73478 1 1.48044 1.10536 1.29291 1.29289C1.10537 1.48043 1 1.73478 1 2V13C1 13.2652 1.10537 13.5196 1.29291 13.7071C1.48044 13.8946 1.73478 14 2 14H19C19.2652 14 19.5196 13.8946 19.7071 13.7071C19.8946 13.5196 20 13.2652 20 13V2Z" fill="#8898AA"/>
</g>
<defs>
<clipPath id="clip0_22_12599">
<rect width="21" height="15" rx="2" fill="white"/>
</clipPath>
</defs>
</svg>
