<svg width="21" height="15" viewBox="0 0 21 15" fill="none" xmlns="http://www.w3.org/2000/svg">
<path d="M19 15H2C1.46957 15 0.960858 14.7893 0.585785 14.4142C0.210712 14.0391 0 13.5304 0 13V6H8V0H19C19.5304 0 20.0391 0.210712 20.4142 0.585785C20.7893 0.960858 21 1.46957 21 2V13C21 13.5304 20.7893 14.0391 20.4142 14.4142C20.0391 14.7893 19.5304 15 19 15Z" fill="#E25950"/>
<path d="M0 11H21V12H0V11ZM0 9H21V10H0V9ZM0 7H21V8H0V7ZM8 5H21V6H8V5ZM8 3H21V4H8V3ZM8 1H20.723C20.9023 1.30291 20.9979 1.64802 21 2H8V1ZM20.723 14H0.277008C0.0976867 13.6971 0.00208218 13.352 0 13H21C20.9979 13.352 20.9023 13.6971 20.723 14Z" fill="#F6F9FC"/>
<path opacity="0.2" d="M19 15H2C1.46957 15 0.960858 14.7893 0.585785 14.4142C0.210712 14.0391 0 13.5304 0 13V6H1V13C1 13.2652 1.10537 13.5196 1.29291 13.7071C1.48044 13.8946 1.73478 14 2 14H19C19.2652 14 19.5196 13.8946 19.7071 13.7071C19.8946 13.5196 20 13.2652 20 13V2C20 1.73478 19.8946 1.48043 19.7071 1.29289C19.5196 1.10536 19.2652 1 19 1H8V0H19C19.5304 0 20.0391 0.210712 20.4142 0.585785C20.7893 0.960858 21 1.46957 21 2V13C21 13.5304 20.7893 14.0391 20.4142 14.4142C20.0391 14.7893 19.5304 15 19 15Z" fill="#E25950"/>
<path d="M0 7V2C0 1.46957 0.210712 0.960858 0.585785 0.585785C0.960858 0.210712 1.46957 0 2 0H9V7H0Z" fill="#43458B"/>
<path d="M7.73002 2.40798C7.58995 2.41336 7.45148 2.37674 7.33237 2.30284C7.21327 2.22894 7.11896 2.12112 7.06159 1.99323C7.00422 1.86534 6.98638 1.72323 7.01038 1.58513C7.03438 1.44703 7.09911 1.31925 7.19626 1.21822C7.29342 1.11718 7.41855 1.0475 7.55561 1.01811C7.69266 0.988728 7.83539 1.00098 7.96543 1.0533C8.09546 1.10562 8.2069 1.19562 8.2854 1.31174C8.36391 1.42786 8.40591 1.56481 8.40601 1.70497C8.40614 1.88684 8.33577 2.06168 8.20972 2.19277C8.08367 2.32386 7.91174 2.40099 7.73002 2.40798ZM7.43302 3.70497C7.43282 3.84417 7.39135 3.98019 7.31388 4.09583C7.2364 4.21147 7.12637 4.30153 6.99772 4.35466C6.86906 4.40779 6.72753 4.4216 6.59104 4.39432C6.45454 4.36704 6.3292 4.29991 6.23084 4.20142C6.13248 4.10292 6.06554 3.97748 6.03846 3.84094C6.01137 3.70441 6.02537 3.56291 6.07868 3.43433C6.13199 3.30575 6.22224 3.19586 6.33799 3.11855C6.45374 3.04124 6.58981 2.99997 6.72901 2.99997C6.91572 2.99997 7.09479 3.07414 7.22681 3.20616C7.35884 3.33819 7.43302 3.51725 7.43302 3.70397V3.70497ZM5.73002 2.40798C5.58975 2.41336 5.45106 2.37669 5.33179 2.30268C5.21252 2.22866 5.11812 2.12069 5.06067 1.99262C5.00323 1.86454 4.98537 1.72222 5.0094 1.58393C5.03344 1.44563 5.09827 1.31768 5.19556 1.21651C5.29286 1.11533 5.41818 1.04556 5.55542 1.01613C5.69267 0.986706 5.83557 0.998981 5.96579 1.05138C6.09601 1.10378 6.20761 1.1939 6.28623 1.31018C6.36485 1.42647 6.40691 1.5636 6.40702 1.70397C6.40715 1.88609 6.33669 2.06119 6.21045 2.19246C6.08421 2.32374 5.91201 2.40099 5.73002 2.40798ZM5.43302 3.70497C5.43282 3.84417 5.39135 3.98019 5.31388 4.09583C5.2364 4.21147 5.12637 4.30153 4.99772 4.35466C4.86906 4.40779 4.72754 4.4216 4.59104 4.39432C4.45454 4.36704 4.3292 4.29991 4.23084 4.20142C4.13248 4.10292 4.06554 3.97748 4.03846 3.84094C4.01137 3.70441 4.02537 3.56291 4.07868 3.43433C4.13199 3.30575 4.22224 3.19586 4.33799 3.11855C4.45374 3.04124 4.58981 2.99997 4.72901 2.99997C4.91572 2.99997 5.09479 3.07414 5.22681 3.20616C5.35884 3.33819 5.43302 3.51725 5.43302 3.70397V3.70497ZM3.73002 2.40798C3.58975 2.41336 3.45106 2.37669 3.33179 2.30268C3.21252 2.22866 3.11812 2.12069 3.06067 1.99262C3.00323 1.86454 2.98537 1.72222 3.0094 1.58393C3.03344 1.44563 3.09827 1.31768 3.19556 1.21651C3.29286 1.11533 3.41818 1.04556 3.55542 1.01613C3.69267 0.986706 3.83557 0.998981 3.96579 1.05138C4.09601 1.10378 4.20761 1.1939 4.28623 1.31018C4.36485 1.42647 4.40691 1.5636 4.40702 1.70397C4.40715 1.88609 4.3367 2.06119 4.21045 2.19246C4.08421 2.32374 3.91201 2.40099 3.73002 2.40798ZM3.43302 3.70497C3.43282 3.84417 3.39135 3.98019 3.31388 4.09583C3.2364 4.21147 3.12637 4.30153 2.99772 4.35466C2.86906 4.40779 2.72754 4.4216 2.59104 4.39432C2.45454 4.36704 2.3292 4.29991 2.23084 4.20142C2.13248 4.10292 2.06554 3.97748 2.03846 3.84094C2.01137 3.70441 2.02537 3.56291 2.07868 3.43433C2.13199 3.30575 2.22224 3.19586 2.33799 3.11855C2.45374 3.04124 2.58981 2.99997 2.72901 2.99997C2.91572 2.99997 3.09479 3.07414 3.22681 3.20616C3.35884 3.33819 3.43302 3.51725 3.43302 3.70397V3.70497ZM1.73002 2.40798C1.58995 2.41336 1.45148 2.37674 1.33237 2.30284C1.21327 2.22894 1.11896 2.12112 1.06159 1.99323C1.00422 1.86534 0.986381 1.72323 1.01038 1.58513C1.03438 1.44703 1.09911 1.31925 1.19626 1.21822C1.29342 1.11718 1.41855 1.0475 1.55561 1.01811C1.69266 0.988728 1.83539 1.00098 1.96543 1.0533C2.09546 1.10562 2.2069 1.19562 2.2854 1.31174C2.36391 1.42786 2.40591 1.56481 2.40601 1.70497C2.40614 1.88684 2.33578 2.06168 2.20972 2.19277C2.08367 2.32386 1.91174 2.40099 1.73002 2.40798ZM1.73002 4.99997C1.87029 4.99479 2.00889 5.03165 2.12806 5.10584C2.24722 5.18002 2.34148 5.28814 2.39875 5.41629C2.45601 5.54445 2.47367 5.68679 2.44944 5.82504C2.4252 5.9633 2.36017 6.09117 2.26273 6.1922C2.16529 6.29324 2.03988 6.36284 1.90259 6.39206C1.7653 6.42129 1.6224 6.40881 1.49225 6.35622C1.36211 6.30363 1.25066 6.21334 1.17222 6.09694C1.09377 5.98054 1.0519 5.84334 1.05201 5.70297C1.05214 5.52085 1.12285 5.34587 1.24927 5.21478C1.3757 5.0837 1.54802 5.0067 1.73002 4.99997ZM3.73002 4.99997C3.87029 4.99479 4.00889 5.03165 4.12806 5.10584C4.24722 5.18002 4.34148 5.28814 4.39875 5.41629C4.45601 5.54445 4.47367 5.68679 4.44944 5.82504C4.4252 5.9633 4.36017 6.09117 4.26273 6.1922C4.16529 6.29324 4.03988 6.36284 3.90259 6.39206C3.7653 6.42129 3.6224 6.40881 3.49225 6.35622C3.36211 6.30363 3.25066 6.21334 3.17222 6.09694C3.09377 5.98054 3.0519 5.84334 3.05201 5.70297C3.05214 5.52085 3.12285 5.34587 3.24927 5.21478C3.3757 5.0837 3.54802 5.0067 3.73002 4.99997ZM5.73002 4.99997C5.87029 4.99479 6.00889 5.03165 6.12806 5.10584C6.24722 5.18002 6.34148 5.28814 6.39875 5.41629C6.45601 5.54445 6.47367 5.68679 6.44944 5.82504C6.4252 5.9633 6.36017 6.09117 6.26273 6.1922C6.16529 6.29324 6.03988 6.36284 5.90259 6.39206C5.7653 6.42129 5.6224 6.40881 5.49225 6.35622C5.36211 6.30363 5.25066 6.21334 5.17221 6.09694C5.09377 5.98054 5.0519 5.84334 5.05201 5.70297C5.05214 5.52085 5.12285 5.34587 5.24927 5.21478C5.3757 5.0837 5.54802 5.0067 5.73002 4.99997ZM7.73002 4.99997C7.87029 4.99479 8.00889 5.03165 8.12806 5.10584C8.24722 5.18002 8.34148 5.28814 8.39875 5.41629C8.45601 5.54445 8.47367 5.68679 8.44944 5.82504C8.4252 5.9633 8.36017 6.09117 8.26273 6.1922C8.16529 6.29324 8.03988 6.36284 7.90259 6.39206C7.7653 6.42129 7.6224 6.40881 7.49225 6.35622C7.36211 6.30363 7.25066 6.21334 7.17221 6.09694C7.09377 5.98054 7.0519 5.84334 7.05201 5.70297C7.05214 5.52085 7.12285 5.34587 7.24927 5.21478C7.3757 5.0837 7.54802 5.0067 7.73002 4.99997Z" fill="white"/>
<path opacity="0.5" d="M9 4.20995C8.90076 4.30587 8.77547 4.37044 8.63977 4.39563C8.50407 4.42083 8.36397 4.40552 8.23691 4.35161C8.10985 4.29771 8.00145 4.2076 7.92526 4.09252C7.84907 3.97743 7.80844 3.84246 7.80844 3.70444C7.80844 3.56642 7.84907 3.43147 7.92526 3.31638C8.00145 3.2013 8.10985 3.11117 8.23691 3.05727C8.36397 3.00337 8.50407 2.98806 8.63977 3.01325C8.77547 3.03844 8.90076 3.10303 9 3.19895V4.20995ZM0 3.23494C0.0942073 3.12845 0.21874 3.05331 0.356873 3.01961C0.495005 2.98592 0.640133 2.99527 0.772797 3.04642C0.90546 3.09757 1.0193 3.18807 1.09906 3.30578C1.17882 3.42348 1.22066 3.56277 1.21899 3.70495C1.21899 3.89139 1.14493 4.07021 1.01309 4.20205C0.881254 4.33388 0.702438 4.40795 0.515991 4.40795C0.418362 4.40743 0.321947 4.38632 0.233032 4.346C0.144117 4.30568 0.0647107 4.24704 0 4.17394V3.23494Z" fill="white"/>
</svg>
